# File created by Blade
# Date/Time:  Tue Jan 27 18:09:10 2015
# Frame Rate: 120.000 fps
#------------------------------------------------------
:FULLY-SPECIFIED
:DEGREES
3080
root -1.433371 31.896897 -6.627439 4.926020 0.938472 2.445397
Spine -4.944768 -19.507882 -3.220840
Head 22.169833 21.611709 3.453376
LeftShoulder -15.964966 19.330753 4.433650
LeftArm 23.396875 39.479414 -71.150513
LeftForeArm -1.353409 -0.000000 19.107234
LeftHand -11.933008 0.000000 -2.489500
LeftHandThumb1 -26.253704 0.000000 33.147579
RightShoulder -15.722587 -3.786514 -33.246376
RightArm 14.110919 -14.731257 19.343930
RightForeArm -7.107045 -0.000000 54.258647
RightHand -8.698799 -0.000000 21.810584
RightHandThumb1 -24.326973 -0.000000 -32.862282
LeftUpLeg -0.136234 3.256076 -0.789919
LeftLeg 0.895671 -0.000000 -0.000000
LeftFoot -19.137046 18.255320 -25.458300
LeftToeBase 8.705546 -0.000000 -0.000000
RightUpLeg 0.556456 -0.262868 -3.479870
RightLeg -2.641566 -0.000000 0.000000
RightFoot -14.002876 -11.548922 9.518980
RightToeBase 4.844887 -0.000000 -0.000000
3081
root -1.436812 31.897304 -6.631940 4.948383 1.066990 2.447146
Spine -4.926458 -19.532532 -3.224834
Head 22.142589 21.519964 3.425115
LeftShoulder -15.947052 19.300959 4.408179
LeftArm 23.575950 39.697549 -70.884978
LeftForeArm -1.282313 -0.000000 19.185106
LeftHand -11.987099 -0.000000 -2.503539
LeftHandThumb1 -26.253704 0.000000 33.147579
RightShoulder -15.729065 -4.023880 -33.181829
RightArm 14.221407 -15.584608 19.358283
RightForeArm -7.856763 0.000000 54.613401
RightHand -8.542665 -0.000000 22.840102
RightHandThumb1 -24.326973 -0.000000 -32.862282
LeftUpLeg -0.163771 3.195890 -0.776490
LeftLeg 0.860696 -0.000000 -0.000000
LeftFoot -19.080602 18.206078 -25.446942
LeftToeBase 8.744092 -0.000000 -0.000000
RightUpLeg 0.558695 -0.297131 -3.466303
RightLeg -2.663054 -0.000000 0.000000
RightFoot -14.006215 -11.641115 9.536176
RightToeBase 4.821244 -0.000000 -0.000000
3082
root -1.440757 31.898138 -6.639750 4.995739 1.218718 2.460651
Spine -4.924218 -19.595427 -3.237566
Head 22.111414 21.460203 3.398689
LeftShoulder -15.940705 19.296428 4.377023
LeftArm 23.766283 39.877646 -70.626206
LeftForeArm -1.126991 0.000000 19.271221
LeftHand -12.036445 -0.000000 -2.545292
LeftHandThumb1 -26.253704 0.000000 33.147579
RightShoulder -15.745348 -4.315219 -33.074350
RightArm 14.374053 -16.309989 19.372246
RightForeArm -8.269732 -0.000000 54.892742
RightHand -8.480008 -0.000000 23.547341
RightHandThumb1 -24.326973 -0.000000 -32.862282
LeftUpLeg -0.231852 3.100669 -0.771527
LeftLeg 0.840526 -0.000000 -0.000000
LeftFoot -19.014478 18.177219 -25.417050
LeftToeBase 8.740332 -0.000000 -0.000000
RightUpLeg 0.529568 -0.339938 -3.463237
RightLeg -2.674236 -0.000000 0.000000
RightFoot -14.020293 -11.722132 9.564161
RightToeBase 4.883787 -0.000000 -0.000000
3083
root -1.444823 31.899650 -6.648244 5.040037 1.377410 2.469794
Spine -4.935655 -19.743061 -3.266917
Head 22.192312 21.441376 3.480884
LeftShoulder -15.961471 19.308864 4.387519
LeftArm 23.876127 39.989021 -70.505162
LeftForeArm -0.938690 -0.000000 19.320708
LeftHand -12.059600 -0.000000 -2.460826
LeftHandThumb1 -26.253704 0.000000 33.147579
RightShoulder -15.672930 -4.367955 -32.960459
RightArm 14.465376 -17.207930 19.356623
RightForeArm -8.402312 -0.000000 55.087388
RightHand -8.454168 -0.000000 24.032598
RightHandThumb1 -24.326973 -0.000000 -32.862282
LeftUpLeg -0.305919 3.038810 -0.762461
LeftLeg 0.835709 -0.000000 -0.000000
LeftFoot -18.944284 18.093485 -25.410806
LeftToeBase 8.732178 -0.000000 -0.000000
RightUpLeg 0.493858 -0.407020 -3.443607
RightLeg -2.679078 -0.000000 0.000000
RightFoot -14.050648 -11.815055 9.669430
RightToeBase 4.885731 -0.000000 -0.000000
3084
root -1.447963 31.899351 -6.654511 5.085258 1.540568 2.482972
Spine -4.913247 -19.752388 -3.266059
Head 22.130764 21.316870 3.393845
LeftShoulder -15.901857 19.259446 4.383299
LeftArm 23.982304 40.172916 -70.317986
LeftForeArm -0.829886 -0.000000 19.417117
LeftHand -12.079358 -0.000000 -2.316873
LeftHandThumb1 -26.253704 0.000000 33.147579
RightShoulder -15.816645 -4.461925 -32.895084
RightArm 14.574742 -18.043567 19.384146
RightForeArm -8.315061 0.000000 55.294164
RightHand -8.506662 -0.000000 24.179883
RightHandThumb1 -24.326973 -0.000000 -32.862282
LeftUpLeg -0.371222 2.975971 -0.757662
LeftLeg 0.820915 -0.000000 -0.000000
LeftFoot -18.867524 18.006172 -25.386455
LeftToeBase 8.724114 -0.000000 -0.000000
RightUpLeg 0.474154 -0.447223 -3.440932
RightLeg -2.695325 -0.000000 0.000000
RightFoot -14.070177 -11.944137 9.677717
RightToeBase 4.899151 -0.000000 -0.000000
3085
root -1.450921 31.899944 -6.661586 5.133249 1.689648 2.495197
Spine -4.909598 -19.798941 -3.281370
Head 22.131052 21.215086 3.368778
LeftShoulder -15.845711 19.261789 4.407164
LeftArm 24.043215 40.246148 -70.248195
LeftForeArm -0.726573 -0.000000 19.495949
LeftHand -12.074923 0.000000 -2.222755
LeftHandThumb1 -26.253704 0.000000 33.147579
RightShoulder -15.895664 -4.594818 -32.770907
RightArm 14.672722 -18.738917 19.409553
RightForeArm -8.097828 -0.000000 55.466059
RightHand -8.524199 -0.000000 24.248520
RightHandThumb1 -24.326973 -0.000000 -32.862282
LeftUpLeg -0.435469 2.949111 -0.755795
LeftLeg 0.789867 -0.000000 -0.000000
LeftFoot -18.769323 17.931473 -25.323167
LeftToeBase 8.714733 -0.000000 -0.000000
RightUpLeg 0.441243 -0.496161 -3.436051
RightLeg -2.697500 -0.000000 0.000000
RightFoot -14.094180 -12.017684 9.720252
RightToeBase 5.007400 -0.000000 -0.000000
